<svg aria-hidden="true" focusable="false" data-icon="file-export" class="svg-inline" role="img" viewBox="0 0 576 512" fill="currentColor" xmlns="http://www.w3.org/2000/svg">
<path fill-rule="evenodd" clip-rule="evenodd" d="M25 0C11.1929 0 0 11.1929 0 25V487C0 500.807 11.1929 512 25 512H359C372.807 512 384 500.807 384 487V352H466.12L448.205 369.915C436.489 381.631 436.489 400.626 448.205 412.342C459.92 424.057 478.915 424.057 490.631 412.342L559.22 343.752C572.108 330.865 572.108 309.97 559.22 297.083L489.924 227.787C478.208 216.071 459.213 216.071 447.497 227.787C435.782 239.502 435.782 258.497 447.497 270.213L465.284 288H384V122.5C384 115.87 381.366 109.511 376.678 104.822L279.178 7.32233C274.489 2.63392 268.13 0 261.5 0H25ZM334 288V163H246C232.193 163 221 151.807 221 138V50H50V462H334V352H207C198.716 352 192 345.284 192 337V303C192 294.716 198.716 288 207 288H334ZM261 123V59.8553L324.145 123H261Z"/>
</svg>
