<svg class="svg-inline" viewBox="0 0 512 512" fill="none" xmlns="http://www.w3.org/2000/svg">
    <path d="M34.4876 398.531C21.5066 398.531 10.0107 393.045 0 382.073L18.9764 352.447C20.1865 352.776 21.1766 353.325 21.9466 354.093C22.8267 354.971 23.8718 356.233 25.0819 357.879C26.952 360.292 28.6571 362.103 30.1972 363.31C31.8474 364.627 34.1025 365.285 36.9627 365.285C40.703 365.285 43.8383 361.993 46.3684 355.41C48.8986 348.936 50.6038 339.939 51.4838 328.418L58.9094 235.427H21.2866V205.143H60.5595L62.8697 178.151C64.8498 155.328 70.6802 138.431 80.361 127.459C90.1517 116.486 103.243 111 119.634 111C136.355 111 150.931 118.351 163.362 133.054L150.161 160.705C146.421 160.705 143.506 160.047 141.415 158.73C139.325 157.303 137.95 155.109 137.29 152.146C136.52 148.745 134.65 146.112 131.68 144.246C128.82 142.381 125.299 141.448 121.119 141.448C115.179 141.448 110.338 144.411 106.598 150.336C102.858 156.151 100.602 166.795 99.8324 182.266L98.3473 205.143H135.97V235.427H95.7071L87.9515 329.899C85.6414 352.612 79.7009 369.729 70.1302 381.25C60.6695 392.771 48.7886 398.531 34.4876 398.531Z" fill="black"/>
    <path d="M266.693 401C246.891 392.771 229.51 381.14 214.549 366.108C199.698 351.076 188.202 334.014 180.061 314.922C172.031 295.72 168.015 275.97 168.015 255.671C168.015 235.591 171.921 216.28 179.731 197.737C187.542 179.084 198.708 162.46 213.229 147.867C227.86 133.164 245.021 121.698 264.713 113.469L273.458 142.765C250.907 154.286 233.525 169.867 221.314 189.507C209.214 209.148 203.163 231.532 203.163 256.658C203.163 273.007 206.023 288.698 211.744 303.73C217.464 318.762 225.77 332.203 236.661 344.053C247.551 355.904 260.477 365.34 275.438 372.362L266.693 401Z" fill="black"/>
    <path d="M259.234 339.61L313.688 259.785L259.894 182.266H302.467L334.645 233.123L365.337 182.266H406.26L355.931 258.633L412.696 339.61H369.462L334.975 286.284L302.467 339.61H259.234Z" fill="black"/>
    <path d="M404.577 372.362C419.538 365.34 432.464 355.904 443.355 344.053C454.246 332.203 462.551 318.762 468.272 303.73C473.992 288.698 476.852 273.007 476.852 256.658C476.852 231.532 470.747 209.148 458.536 189.507C446.435 169.867 429.109 154.286 406.557 142.765L415.303 113.469C434.994 121.698 452.101 133.164 466.622 147.867C481.253 162.46 492.474 179.084 500.284 197.737C508.095 216.28 512 235.591 512 255.671C512 275.97 507.93 295.72 499.789 314.922C491.758 334.014 480.263 351.076 465.302 366.108C450.45 381.14 433.124 392.771 413.323 401L404.577 372.362Z" fill="black"/>
</svg>