<svg aria-hidden="true" focusable="false" data-icon="zoom-to-fit" class="svg-inline" viewBox="0 0 15 15" fill="none" xmlns="http://www.w3.org/2000/svg">
<path d="M8.78878 6.63654V7.08183C8.78878 7.20429 8.68859 7.30448 8.56613 7.30448H7.30448V8.56613C7.30448 8.68859 7.20429 8.78878 7.08183 8.78878H6.63654C6.51409 8.78878 6.4139 8.68859 6.4139 8.56613V7.30448H5.15224C5.02978 7.30448 4.92959 7.20429 4.92959 7.08183V6.63654C4.92959 6.51409 5.02978 6.4139 5.15224 6.4139H6.4139V5.15224C6.4139 5.02978 6.51409 4.92959 6.63654 4.92959H7.08183C7.20429 4.92959 7.30448 5.02978 7.30448 5.15224V6.4139H8.56613C8.68859 6.4139 8.78878 6.51409 8.78878 6.63654ZM12.4346 12.0153L12.0153 12.4346C11.9281 12.5218 11.7871 12.5218 11.6999 12.4346L9.44744 10.1822C9.40477 10.1395 9.3825 10.0838 9.3825 10.0245V9.77955C8.70529 10.364 7.82398 10.7184 6.85919 10.7184C4.72736 10.7184 3 8.99102 3 6.85919C3 4.72736 4.72736 3 6.85919 3C8.99102 3 10.7184 4.72736 10.7184 6.85919C10.7184 7.82398 10.364 8.70529 9.77955 9.3825H10.0245C10.0838 9.3825 10.1395 9.40662 10.1822 9.44744L12.4346 11.6999C12.5218 11.7871 12.5218 11.9281 12.4346 12.0153ZM9.82779 6.85919C9.82779 5.21903 8.49934 3.89058 6.85919 3.89058C5.21903 3.89058 3.89058 5.21903 3.89058 6.85919C3.89058 8.49934 5.21903 9.82779 6.85919 9.82779C8.49934 9.82779 9.82779 8.49934 9.82779 6.85919Z" fill="black"/>
<path fill-rule="evenodd" clip-rule="evenodd" d="M0 1.75V0H1.75V1.25H1.25V1.75H0ZM6.75 0H3.25V1.25H6.75V0ZM8.25 0V1.25H11.75V0H8.25ZM13.25 0V1.25H13.75V1.75H15V0H13.25ZM15 3.25H13.75V6.75H15V3.25ZM15 8.25H13.75V11.75H15V8.25ZM15 13.25H13.75V13.75H13.25V15H15V13.25ZM11.75 15V13.75H8.25V15H11.75ZM6.75 15V13.75H3.25V15H6.75ZM1.75 15V13.75H1.25V13.25H0V15H1.75ZM0 11.75H1.25V8.25H0V11.75ZM0 6.75H1.25V3.25H0V6.75Z" fill="black"/>
</svg>
